<?xml version="1.0" encoding="UTF-8"?>
<svg version="1.1" xmlns="http://www.w3.org/2000/svg" width="512" height="512">
<path d="M0 0 C0.99720353 -0.00551503 0.99720353 -0.00551503 2.01455259 -0.01114148 C4.23509216 -0.02212605 6.45558485 -0.02601328 8.67614746 -0.02983093 C10.27153673 -0.03609972 11.86692455 -0.04274688 13.46231079 -0.04974365 C18.69699088 -0.07074355 23.93167111 -0.08114476 29.16638184 -0.09111023 C30.97297684 -0.09515982 32.77957169 -0.0992768 34.58616638 -0.10346031 C43.07842492 -0.12250594 51.57067483 -0.13673623 60.06295061 -0.14507228 C69.84198047 -0.15483157 79.62078318 -0.18111947 89.39973307 -0.22157317 C96.97280006 -0.2518181 104.54580226 -0.26654922 112.11892843 -0.26985329 C116.63483364 -0.27219493 121.15049604 -0.28103867 125.66633606 -0.30631447 C129.92146211 -0.32974623 134.17618809 -0.33376839 138.43136215 -0.32355309 C139.98364983 -0.3230612 141.53595822 -0.32927773 143.08818436 -0.34310913 C157.86674561 -0.46730926 170.04183027 2.05438985 181.26013184 12.14717102 C188.66204991 19.96544699 192.37042025 29.34353055 192.40730286 40.00802612 C192.41097954 40.6978865 192.41465623 41.38774688 192.41844434 42.09851211 C192.42945565 44.40974258 192.43332071 46.72092804 192.43713379 49.03218079 C192.44340051 50.68978009 192.45004749 52.34737799 192.45704651 54.00497437 C192.47806942 59.44949875 192.48844916 64.89402335 192.49841309 70.33857727 C192.50246169 72.21548413 192.50657865 74.09239085 192.51076317 75.96929741 C192.52981315 84.79045992 192.54404302 93.61161408 192.55237514 102.4327932 C192.56213878 112.6006826 192.5884363 122.76835379 192.62887603 132.93616635 C192.65908883 140.80387157 192.67384902 148.67151445 192.67715615 156.53927654 C192.67950128 161.23398108 192.68839123 165.92845248 192.71361732 170.62309456 C192.73699274 175.04481432 192.74109345 179.46614899 192.73085594 183.88791466 C192.73036272 185.50393077 192.73661965 187.11996644 192.75041199 188.73592377 C192.86931355 203.50240925 190.07588183 214.01954308 179.60388184 224.86201477 C172.0917136 231.82494429 163.53173195 235.25929947 153.39927673 235.29434204 C152.70941636 235.29801873 152.01955598 235.30169542 151.30879074 235.30548352 C148.99756028 235.31649483 146.68637481 235.32035989 144.37512207 235.32417297 C142.71752277 235.33043969 141.05992486 235.33708668 139.40232849 235.34408569 C133.9578041 235.3651086 128.5132795 235.37548834 123.06872559 235.38545227 C121.19181872 235.38950088 119.31491201 235.39361783 117.43800545 235.39780235 C108.61684294 235.41685233 99.79568878 235.4310822 90.97450966 235.43941432 C80.80662026 235.44917797 70.63894906 235.47547548 60.47113651 235.51591522 C52.60343128 235.54612801 44.73578841 235.5608882 36.86802632 235.56419533 C32.17332177 235.56654046 27.47885038 235.57543041 22.7842083 235.60065651 C18.36248854 235.62403193 13.94115386 235.62813264 9.5193882 235.61789513 C7.90337209 235.6174019 6.28733642 235.62365883 4.67137909 235.63745117 C-7.05640638 235.73188474 -17.11898148 234.5306422 -26.73986816 227.14717102 C-27.70924316 226.46654602 -28.67861816 225.78592102 -29.67736816 225.08467102 C-38.03104019 217.89611641 -42.17479612 207.33415987 -43.02171135 196.56248856 C-43.13565418 192.38886131 -43.15751621 188.22470199 -43.1439209 184.05000305 C-43.14963454 182.45372544 -43.15660261 180.8574519 -43.16471863 179.26118469 C-43.18255632 174.95525574 -43.18149937 170.64953161 -43.17577624 166.34357691 C-43.17267046 162.73553901 -43.17879227 159.12753967 -43.18481499 155.51950729 C-43.19882804 147.00066811 -43.19732607 138.48192928 -43.18591309 129.96308899 C-43.17443738 121.20443646 -43.18850568 112.44609035 -43.21530956 103.68747818 C-43.23753429 96.13974781 -43.24408867 88.59211315 -43.23823315 81.04435241 C-43.23487824 76.54868531 -43.23718023 72.05321449 -43.25448418 67.55757523 C-43.27005956 63.32695442 -43.26588172 59.09678411 -43.24717903 54.86618042 C-43.24352212 53.32357742 -43.24651587 51.78094025 -43.25706482 50.23836899 C-43.34943462 35.60099623 -40.84920314 23.03035904 -30.77502441 11.99482727 C-22.22566705 3.69282925 -11.77565592 0.04236308 0 0 Z " fill="#20A2F3" transform="translate(319.7398681640625,276.8528289794922)"/>
<path d="M0 0 C0.68986038 -0.00367669 1.37972075 -0.00735338 2.09048599 -0.01114148 C4.40171646 -0.02215279 6.71290192 -0.02601785 9.02415466 -0.02983093 C10.68175397 -0.03609765 12.33935187 -0.04274464 13.99694824 -0.04974365 C19.44147263 -0.07076656 24.88599723 -0.0811463 30.33055115 -0.09111023 C32.20745801 -0.09515884 34.08436472 -0.09927579 35.96127129 -0.10346031 C44.78243379 -0.12251029 53.60358796 -0.13674016 62.42476708 -0.14507228 C72.59265647 -0.15483592 82.76032767 -0.18113344 92.92814022 -0.22157317 C100.79584545 -0.25178597 108.66348833 -0.26654616 116.53125042 -0.26985329 C121.22595496 -0.27219842 125.92042635 -0.28108837 130.61506844 -0.30631447 C135.03678819 -0.32968989 139.45812287 -0.3337906 143.87988853 -0.32355309 C145.49590464 -0.32305986 147.11194032 -0.32931679 148.72789764 -0.34310913 C160.45568312 -0.4375427 170.51825821 0.76369984 180.1391449 8.14717102 C181.1085199 8.82779602 182.0778949 9.50842102 183.0766449 10.20967102 C191.43031693 17.39822563 195.57407286 27.96018217 196.42098808 38.73185349 C196.53493092 42.90548073 196.55679294 47.06964005 196.54319763 51.24433899 C196.54891127 52.8406166 196.55587935 54.43689014 196.56399536 56.03315735 C196.58183305 60.3390863 196.5807761 64.64481043 196.57505298 68.95076513 C196.57194719 72.55880303 196.57806901 76.16680237 196.58409172 79.77483475 C196.59810477 88.29367393 196.59660281 96.81241276 196.58518982 105.33125305 C196.57371411 114.08990558 196.58778241 122.84825169 196.61458629 131.60686386 C196.63681102 139.15459423 196.6433654 146.70222889 196.63750988 154.24998963 C196.63415497 158.74565673 196.63645696 163.24112755 196.65376091 167.73676682 C196.66933629 171.96738762 196.66515846 176.19755793 196.64645576 180.42816162 C196.64279885 181.97076462 196.6457926 183.51340179 196.65634155 185.05597305 C196.74871135 199.69334581 194.24847988 212.263983 184.17430115 223.29951477 C175.62494378 231.60151279 165.17493266 235.25197897 153.39927673 235.29434204 C152.73447438 235.29801873 152.06967202 235.30169542 151.38472414 235.30548352 C149.16418457 235.31646809 146.94369188 235.32035532 144.72312927 235.32417297 C143.12774 235.33044176 141.53235218 235.33708892 139.93696594 235.34408569 C134.70228585 235.36508559 129.46760562 235.3754868 124.2328949 235.38545227 C122.4262999 235.38950186 120.61970505 235.39361884 118.81311035 235.39780235 C110.32085181 235.41684798 101.82860191 235.43107827 93.33632612 235.43941432 C83.55729627 235.44917361 73.77849355 235.47546151 63.99954367 235.51591522 C56.42647668 235.54616014 48.85347447 235.56089126 41.2803483 235.56419533 C36.76444309 235.56653697 32.24878069 235.57538071 27.73294067 235.60065651 C23.47781462 235.62408827 19.22308865 235.62811043 14.96791458 235.61789513 C13.4156269 235.61740324 11.86331851 235.62361978 10.31109238 235.63745117 C-4.46746887 235.7616513 -16.64255354 233.2399522 -27.8608551 223.14717102 C-35.26277318 215.32889505 -38.97114351 205.9508115 -39.00802612 195.28631592 C-39.01354116 194.25152535 -39.01354116 194.25152535 -39.0191676 193.19582993 C-39.03017891 190.88459946 -39.03404397 188.573414 -39.03785706 186.26216125 C-39.04412377 184.60456195 -39.05077076 182.94696405 -39.05776978 181.28936768 C-39.07879268 175.84484329 -39.08917242 170.40031869 -39.09913635 164.95576477 C-39.10318496 163.07885791 -39.10730191 161.20195119 -39.11148643 159.32504463 C-39.13053642 150.50388212 -39.14476629 141.68272796 -39.1530984 132.86154884 C-39.16286205 122.69365944 -39.18915956 112.52598825 -39.2295993 102.35817569 C-39.25981209 94.49047047 -39.27457228 86.62282759 -39.27787942 78.7550655 C-39.28022455 74.06036096 -39.28911449 69.36588956 -39.31434059 64.67124748 C-39.33771601 60.24952772 -39.34181672 55.82819305 -39.33157921 51.40642738 C-39.33108599 49.79041127 -39.33734292 48.1743756 -39.35113525 46.55841827 C-39.46455131 32.47318213 -37.09253676 21.64496307 -27.0483551 11.27607727 C-19.1837134 3.90297568 -10.73568175 0.0371288 0 0 Z " fill="#20C3F6" transform="translate(38.86085510253906,-0.1471710205078125)"/>
<path d="M0 0 C0.68986038 -0.00367669 1.37972075 -0.00735338 2.09048599 -0.01114148 C4.40171646 -0.02215279 6.71290192 -0.02601785 9.02415466 -0.02983093 C10.68175397 -0.03609765 12.33935187 -0.04274464 13.99694824 -0.04974365 C19.44147263 -0.07076656 24.88599723 -0.0811463 30.33055115 -0.09111023 C32.20745801 -0.09515884 34.08436472 -0.09927579 35.96127129 -0.10346031 C44.78243379 -0.12251029 53.60358796 -0.13674016 62.42476708 -0.14507228 C72.59265647 -0.15483592 82.76032767 -0.18113344 92.92814022 -0.22157317 C100.79584545 -0.25178597 108.66348833 -0.26654616 116.53125042 -0.26985329 C121.22595496 -0.27219842 125.92042635 -0.28108837 130.61506844 -0.30631447 C135.03678819 -0.32968989 139.45812287 -0.3337906 143.87988853 -0.32355309 C145.49590464 -0.32305986 147.11194032 -0.32931679 148.72789764 -0.34310913 C163.49438313 -0.46201069 174.01151696 2.33142103 184.85398865 12.80342102 C191.81691816 20.31558925 195.25127334 28.87557091 195.28631592 39.00802612 C195.28999261 39.6978865 195.29366929 40.38774688 195.2974574 41.09851211 C195.30846871 43.40974258 195.31233377 45.72092804 195.31614685 48.03218079 C195.32241357 49.68978009 195.32906056 51.34737799 195.33605957 53.00497437 C195.35708248 58.44949875 195.36746222 63.89402335 195.37742615 69.33857727 C195.38147475 71.21548413 195.38559171 73.09239085 195.38977623 74.96929741 C195.40882621 83.79045992 195.42305608 92.61161408 195.4313882 101.4327932 C195.44115184 111.6006826 195.46744936 121.76835379 195.50788909 131.93616635 C195.53810189 139.80387157 195.55286208 147.67151445 195.55616921 155.53927654 C195.55851434 160.23398108 195.56740429 164.92845248 195.59263039 169.62309456 C195.61600581 174.04481432 195.62010652 178.46614899 195.609869 182.88791466 C195.60937578 184.50393077 195.61563271 186.11996644 195.62942505 187.73592377 C195.72406743 199.48964089 194.50012877 209.48587969 187.1391449 219.14717102 C186.3347699 220.35373352 186.3347699 220.35373352 185.5141449 221.58467102 C177.69512491 230.02098206 167.77719082 234.40180153 156.37879944 235.51412964 C152.18534696 235.66411496 148.01008188 235.68902377 143.81492615 235.66474915 C142.21835191 235.67018307 140.62178269 235.67731279 139.02522278 235.68598938 C134.72760872 235.70407494 130.43038291 235.69721699 126.13276291 235.68447304 C121.61184985 235.6742681 117.09096762 235.68375934 112.5700531 235.6900177 C104.98137003 235.69727246 97.39284324 235.68776369 89.80418396 235.6686554 C81.06024684 235.64689083 72.31668295 235.65394375 63.57275486 235.67596102 C56.03346621 235.69417719 48.49428919 235.69664309 40.95498562 235.68620634 C36.46606781 235.68000544 31.9773248 235.67904112 27.48841858 235.69235229 C23.26595928 235.70400125 19.04397601 235.69572217 14.82156754 235.67277527 C13.28219514 235.66753603 11.7427819 235.66891868 10.20342636 235.67782593 C-4.42041737 235.75457153 -16.98842484 233.2466854 -28.01319885 223.18232727 C-36.31519687 214.63296991 -39.96566305 204.18295878 -40.00802612 192.40730286 C-40.01170281 191.7425005 -40.0153795 191.07769814 -40.0191676 190.39275026 C-40.03015217 188.17221069 -40.0340394 185.951718 -40.03785706 183.7311554 C-40.04412584 182.13576613 -40.05077301 180.54037831 -40.05776978 178.94499207 C-40.07876967 173.71031198 -40.08917088 168.47563174 -40.09913635 163.24092102 C-40.10318594 161.43432602 -40.10730293 159.62773117 -40.11148643 157.82113647 C-40.13053206 149.32887793 -40.14476235 140.83662803 -40.1530984 132.34435225 C-40.16285769 122.56532239 -40.18914559 112.78651968 -40.2295993 103.00756979 C-40.25984422 95.4345028 -40.27457534 87.8615006 -40.27787942 80.28837442 C-40.28022105 75.77246921 -40.28906479 71.25680681 -40.31434059 66.7409668 C-40.33777236 62.48584075 -40.34179451 58.23111477 -40.33157921 53.9759407 C-40.33108733 52.42365303 -40.33730386 50.87134463 -40.35113525 49.3191185 C-40.47533538 34.54055725 -37.95363628 22.36547258 -27.8608551 11.14717102 C-20.04257913 3.74525294 -10.66449558 0.03688261 0 0 Z " fill="#20B2F4" transform="translate(316.86085510253906,-0.1471710205078125)"/>
<path d="M0 0 C1.59627761 -0.00571364 3.19255115 -0.01268172 4.78881836 -0.02079773 C9.09474732 -0.03863542 13.40047144 -0.03757847 17.70642614 -0.03185534 C21.31446404 -0.02874956 24.92246338 -0.03487138 28.53049576 -0.04089409 C37.04933494 -0.05490714 45.56807377 -0.05340518 54.08691406 -0.04199219 C62.84556659 -0.03051648 71.6039127 -0.04458478 80.36252487 -0.07138866 C87.91025524 -0.09361339 95.4578899 -0.10016777 103.00565064 -0.09431225 C107.50131774 -0.09095734 111.99678856 -0.09325933 116.49242783 -0.11056328 C120.72304863 -0.12613866 124.95321894 -0.12196082 129.18382263 -0.10325813 C130.72642563 -0.09960122 132.2690628 -0.10259497 133.81163406 -0.11314392 C148.44900682 -0.20551372 161.01964401 2.29471776 172.05517578 12.36889648 C180.3571738 20.91825385 184.00763998 31.36826498 184.05000305 43.1439209 C184.05367974 43.80872325 184.05735643 44.47352561 184.06114453 45.15847349 C184.0721291 47.37901306 184.07601633 49.59950575 184.07983398 51.82006836 C184.08610277 53.41545763 184.09274994 55.01084545 184.0997467 56.60623169 C184.1207466 61.84091178 184.13114781 67.07559201 184.14111328 72.31030273 C184.14516287 74.11689773 184.14927985 75.92349259 184.15346336 77.73008728 C184.17250899 86.22234582 184.18673928 94.71459573 184.19507533 103.20687151 C184.20483462 112.98590136 184.23112252 122.76470408 184.27157623 132.54365396 C184.30182115 140.11672095 184.31655227 147.68972316 184.31985635 155.26284933 C184.32219798 159.77875454 184.33104172 164.29441694 184.35631752 168.81025696 C184.37974929 173.06538301 184.38377144 177.32010899 184.37355614 181.57528305 C184.37306426 183.12757073 184.37928079 184.67987912 184.39311218 186.23210526 C184.51731231 201.0106665 181.99561321 213.18575117 171.90283203 224.40405273 C164.08455606 231.80597081 154.70647251 235.51434115 144.04197693 235.55122375 C143.35211655 235.55490044 142.66225618 235.55857713 141.95149094 235.56236523 C139.64026047 235.57337654 137.32907501 235.57724161 135.01782227 235.58105469 C133.36022296 235.58732141 131.70262506 235.59396839 130.04502869 235.60096741 C124.6005043 235.62199031 119.1559797 235.63237005 113.71142578 235.64233398 C111.83451892 235.64638259 109.95761221 235.65049955 108.08070564 235.65468407 C99.25954313 235.67373405 90.43838897 235.68796392 81.61720985 235.69629604 C71.44932045 235.70605968 61.28164926 235.7323572 51.11383671 235.77279693 C43.24613148 235.80300972 35.3784886 235.81776991 27.51072651 235.82107705 C22.81602197 235.82342218 18.12155058 235.83231213 13.42690849 235.85753822 C9.00518873 235.88091364 4.58385406 235.88501435 0.16208839 235.87477684 C-1.45392771 235.87428362 -3.06996339 235.88054055 -4.68592072 235.89433289 C-19.4524062 236.01323444 -29.96954003 233.21980272 -40.81201172 222.74780273 C-47.77494124 215.2356345 -51.20929641 206.67565284 -51.24433899 196.54319763 C-51.24985402 195.50840707 -51.24985402 195.50840707 -51.25548047 194.45271164 C-51.26649178 192.14148118 -51.27035684 189.83029571 -51.27416992 187.51904297 C-51.28043664 185.86144367 -51.28708363 184.20384576 -51.29408264 182.54624939 C-51.31510555 177.101725 -51.32548529 171.6572004 -51.33544922 166.21264648 C-51.33949783 164.33573962 -51.34361478 162.45883291 -51.3477993 160.58192635 C-51.36684928 151.76076384 -51.38107915 142.93960968 -51.38941127 134.11843055 C-51.39917491 123.95054116 -51.42547243 113.78286996 -51.46591216 103.61505741 C-51.49612496 95.74735218 -51.51088515 87.8797093 -51.51419228 80.01194721 C-51.51653741 75.31724267 -51.52542736 70.62277128 -51.55065346 65.9281292 C-51.57402888 61.50640944 -51.57812959 57.08507476 -51.56789207 52.6633091 C-51.56739885 51.04729299 -51.57365578 49.43125731 -51.58744812 47.81529999 C-51.68188169 36.08751452 -50.48063914 26.02493942 -43.09716797 16.40405273 C-42.41654297 15.43467773 -41.73591797 14.46530273 -41.03466797 13.46655273 C-30.36881958 1.07198886 -15.21431845 -0.04954689 0 0 Z " fill="#20B4F5" transform="translate(51.09716796875,276.595947265625)"/>
</svg>
